<?xml version="1.0" encoding="utf-8"?>
<!-- Generator: Adobe Illustrator 16.0.3, SVG Export Plug-In . SVG Version: 6.00 Build 0)  -->
<!DOCTYPE svg PUBLIC "-//W3C//DTD SVG 1.1//EN" "http://www.w3.org/Graphics/SVG/1.1/DTD/svg11.dtd">
<svg version="1.1" id="Camada_1" xmlns="http://www.w3.org/2000/svg" xmlns:xlink="http://www.w3.org/1999/xlink" x="0px" y="0px"
	 width="84.211px" height="64.253px" viewBox="-17.79 0 84.211 64.253" enable-background="new -17.79 0 84.211 64.253"
	 xml:space="preserve">
<g>
	<path opacity="0.2" fill="#040000" enable-background="new    " d="M51.468,25.842c-12.834-1.161-27.857,4.18-33.622,11.917
		c-0.216,0.289-0.395,0.58-0.576,0.871c-0.754,1.162-1.274,2.345-1.487,3.511c-0.235,1.144-0.222,2.243,0.115,3.308
		c0.022,0.066,0.256,0.682,0.567,1.676c0,0,0,0,0.018,0.023c1.421,4.434,5.23,16.048,5.255,16.116
		c0.264,0.815,2.07,0.979,3.438,0.312c0.065-0.037,0.163-0.072,0.213-0.09c0.408-0.205,29.137-14.191,30.032-14.615
		c0.246-0.131,0.521-0.26,0.768-0.392c1.619-0.862,3.055-1.81,4.313-2.815c1.5-1.185,2.721-2.434,3.672-3.711
		C69.937,34.212,64.232,26.997,51.468,25.842z M37.912,52.177c-1.418,1.904-5.118,3.215-8.266,2.931
		c-3.146-0.284-4.548-2.058-3.131-3.96l6.105-8.195c1.417-1.902,5.116-3.215,8.262-2.93c3.147,0.284,4.552,2.057,3.133,3.96
		L37.912,52.177z M42.814,37.434c-3.305-0.3-4.775-2.162-3.288-4.16s5.373-3.375,8.677-3.075c3.307,0.299,4.777,2.161,3.289,4.158
		S46.119,37.732,42.814,37.434z"/>
	<path fill="#919191" d="M23.615,0C10.541,0,0,10.576,0,23.612c0,0.488,0.035,0.971,0.068,1.458c0.106,1.942,0.45,3.884,1.077,5.756
		c0.59,1.837,1.387,3.573,2.458,5.203c0.072,0.102,0.731,1.039,1.736,2.566c0,0,0,0,0.034,0.033
		c4.507,6.795,16.404,24.586,16.472,24.688c0.832,1.249,2.672,1.249,3.504,0c0.032-0.068,0.103-0.137,0.138-0.173
		c0.244-0.38,17.72-26.562,18.272-27.358c0.142-0.242,0.314-0.484,0.455-0.729c0.931-1.596,1.627-3.292,2.113-5.062
		c0.588-2.081,0.864-4.23,0.864-6.382C47.193,10.576,36.619,0,23.615,0z M29.402,43.507c0,3.207-2.6,5.806-5.805,5.806
		c-3.208,0-5.804-2.599-5.804-5.806V29.701c0-3.207,2.597-5.805,5.804-5.805c3.205,0,5.805,2.598,5.805,5.805V43.507z
		 M23.598,19.531c-3.368,0-6.097-2.729-6.097-6.096c0-3.364,2.729-6.093,6.097-6.093c3.366,0,6.094,2.729,6.094,6.093
		C29.691,16.802,26.963,19.531,23.598,19.531z"/>
</g>
</svg>
