<?xml version="1.0" encoding="utf-8"?>
<!-- Generator: Adobe Illustrator 16.0.3, SVG Export Plug-In . SVG Version: 6.00 Build 0)  -->
<!DOCTYPE svg PUBLIC "-//W3C//DTD SVG 1.1//EN" "http://www.w3.org/Graphics/SVG/1.1/DTD/svg11.dtd">
<svg version="1.1" id="Camada_1" xmlns="http://www.w3.org/2000/svg" xmlns:xlink="http://www.w3.org/1999/xlink" x="0px" y="0px"
	 width="160px" height="30px" viewBox="0 0 160 30" enable-background="new 0 0 160 30" xml:space="preserve">
<g>
	<path fill="#FFFFFF" d="M96.7,20.255c-0.401-0.516-0.604-1.129-0.604-1.845c0-0.484,0.1-1.003,0.289-1.561l0.395-1.117
		c0.09-0.251,0.266-0.377,0.527-0.377h1.797c1.427,0,2.361,0.029,2.814,0.092c0.678,0.09,1.156,0.31,1.438,0.665
		c0.443,0.534,0.666,1.159,0.666,1.875c0,0.474-0.1,0.978-0.301,1.513l-0.41,1.135c-0.092,0.252-0.283,0.377-0.572,0.377h-1.816
		c-1.26,0-2.131-0.028-2.615-0.09C97.508,20.819,96.973,20.599,96.7,20.255z M97.17,14.597l1.934-5.289
		c0.095-0.253,0.296-0.38,0.609-0.38h7.85c0.078,0.01,0.121,0.051,0.121,0.12c0,0.062-0.043,0.147-0.121,0.26
		c-1.344,1.869-2.748,3.253-4.223,4.153c-1.754,1.072-3.766,1.575-6.033,1.516c-0.109-0.009-0.168-0.069-0.168-0.183
		C97.139,14.745,97.146,14.679,97.17,14.597z M103.793,14.237c0.152-0.403,0.408-0.729,0.768-0.975
		c0.357-0.248,0.757-0.372,1.191-0.372c0.576,0,1.069,0.204,1.473,0.612c0.406,0.407,0.608,0.896,0.608,1.459
		c0,0.575-0.202,1.066-0.608,1.477c-0.402,0.406-0.896,0.611-1.473,0.611c-0.576,0-1.068-0.205-1.48-0.611
		c-0.407-0.409-0.61-0.9-0.61-1.477C103.66,14.72,103.703,14.477,103.793,14.237z M114.305,15.355l-1.938,5.277
		c-0.088,0.252-0.291,0.377-0.604,0.377h-7.82c-0.078,0-0.121-0.035-0.121-0.104c0-0.071,0.043-0.161,0.121-0.272
		c1.342-1.867,2.749-3.247,4.22-4.143c1.745-1.069,3.747-1.573,6.005-1.514c0.111,0.011,0.166,0.07,0.166,0.182
		C114.336,15.218,114.326,15.284,114.305,15.355z M114.805,9.685c0.414,0.515,0.621,1.13,0.621,1.845
		c0,0.484-0.098,1.003-0.289,1.558l-0.406,1.132c-0.092,0.243-0.27,0.364-0.53,0.364h-1.799c-1.414,0-2.345-0.031-2.8-0.091
		c-0.686-0.091-1.164-0.309-1.438-0.649c-0.441-0.545-0.664-1.174-0.664-1.891c0-0.465,0.098-0.968,0.289-1.514l0.408-1.134
		c0.09-0.251,0.287-0.377,0.589-0.377h1.813c1.252,0,2.123,0.031,2.615,0.09C114.002,9.13,114.531,9.351,114.805,9.685z"/>
	<path fill="#FFFFFF" d="M119.34,8.944h3.42l-4.268,12.098h-3.555L119.34,8.944z M125.01,8.944h4.34c1.222,0,2.361,0.09,3.435,0.271
		c0.854,0.143,1.285,0.61,1.285,1.407c0,0.12-0.011,0.246-0.031,0.377l-0.028,0.183c-0.132,0.946-0.541,1.723-1.224,2.327
		c-0.627,0.545-1.438,0.912-2.437,1.104c0.787,0.211,1.326,0.479,1.617,0.8c0.375,0.394,0.504,0.959,0.394,1.694
		c-0.171,1.147-0.816,2.105-1.935,2.873c-1.029,0.708-2.147,1.062-3.356,1.062h-6.457L125.01,8.944z M127.021,18.531
		c0.373,0.008,0.738-0.148,1.096-0.479c0.357-0.328,0.563-0.678,0.613-1.052c0.092-0.615-0.313-0.927-1.209-0.937h-1.711
		l-0.892,2.465L127.021,18.531L127.021,18.531z M128.699,13.405c0.354,0.01,0.676-0.093,0.969-0.309
		c0.293-0.217,0.494-0.495,0.605-0.835c0.01-0.04,0.018-0.096,0.029-0.165c0.102-0.672-0.275-1.012-1.136-1.021l-1.692-0.017
		l-0.756,2.346L128.699,13.405L128.699,13.405z M133.766,16.43c0.414-2.351,1.469-4.227,3.168-5.634
		c1.697-1.406,3.74-2.11,6.131-2.11c0.664,0,1.229,0.03,1.693,0.092c0.727,0.091,1.381,0.322,1.965,0.694
		c0.453,0.313,0.68,0.808,0.68,1.482c0,0.483-0.102,0.998-0.303,1.542h-3.279c0.01-0.559-0.152-0.947-0.482-1.161
		c-0.262-0.183-0.691-0.275-1.287-0.275c-1.027,0-2.006,0.506-2.934,1.514c-0.816,0.886-1.371,1.87-1.664,2.948
		c-0.021,0.051-0.035,0.105-0.045,0.167l-0.029,0.196c-0.021,0.161-0.031,0.322-0.031,0.483c-0.01,0.755,0.191,1.398,0.605,1.936
		c0.332,0.435,0.877,0.648,1.633,0.648c0.705,0,1.385-0.136,2.041-0.408l0.666-1.979h-2.359l0.894-2.495h5.793l-2.283,6.564
		c-2.563,0.451-4.528,0.681-5.897,0.681h-0.334c-1.842,0.009-3.084-0.444-3.721-1.361c-0.461-0.694-0.693-1.526-0.693-2.496
		c0-0.321,0.025-0.661,0.076-1.012V16.43H133.766z M150.67,8.944H160l-0.879,2.358h-5.773l-0.893,2.372h5.396l-0.875,2.497h-5.398
		l-0.877,2.36h5.928l-0.906,2.511h-9.33L150.67,8.944z"/>
</g>
<g>
	<path fill="#FFFFFF" d="M0,29.984l14.656-3.953V-0.001L0,3.952V29.984z M2.383,9.932c0-0.13,0.106-0.265,0.236-0.299l5.267-1.401
		c1.04-0.276,1.975-0.332,2.78-0.161c0.814,0.173,1.453,0.565,1.903,1.167c0.447,0.603,0.674,1.37,0.674,2.277
		c0,1.355-0.494,2.586-1.468,3.661c-0.961,1.056-2.287,1.815-3.944,2.259l-1.793,0.479v4.241c0,0.133-0.106,0.266-0.238,0.301
		l-3.181,0.848c-0.13,0.033-0.236-0.043-0.236-0.174V9.932z"/>
	<path fill="#FFFFFF" d="M9.131,13.764c0.277-0.337,0.411-0.743,0.411-1.243c0-0.561-0.144-0.953-0.438-1.202
		c-0.289-0.243-0.676-0.297-1.185-0.166l-1.881,0.499v3.332l1.848-0.49C8.436,14.345,8.854,14.103,9.131,13.764z"/>
	<polygon fill="#FFFFFF" points="21.812,13.285 20.895,16.37 22.542,16.717 	"/>
	<path fill="#FFFFFF" d="M15.843,26.031l11.651,3.953V3.952L15.843-0.001V26.031z M16.654,20.19l3.992-11.396
		c0.026-0.082,0.096-0.124,0.171-0.108l2.246,0.47c0.074,0.017,0.14,0.086,0.163,0.178l3.295,12.896
		c0.013,0.032,0.019,0.069,0.018,0.107c-0.002,0.122-0.085,0.203-0.182,0.182c-0.002,0-0.002,0-0.003,0l-2.566-0.539
		c-0.079-0.017-0.146-0.091-0.167-0.188l-0.476-2.229l-3.011-0.631l-0.596,2.007c-0.025,0.086-0.096,0.135-0.174,0.117l-2.552-0.534
		c-0.059-0.016-0.112-0.059-0.143-0.125C16.638,20.331,16.633,20.255,16.654,20.19z"/>
	<path fill="#FFFFFF" d="M28.68,29.988l14.656-3.953V0.002L28.68,3.955V29.988z M34.419,8.533l1.64-3.423
		c0.039-0.083,0.11-0.146,0.187-0.165l3.038-0.751c0.087-0.021,0.169,0.017,0.207,0.099c0.037,0.08,0.023,0.189-0.034,0.278
		L37.128,8.17c-0.043,0.063-0.103,0.109-0.167,0.125c0,0,0,0-0.001,0l-2.348,0.576c-0.08,0.02-0.155-0.011-0.195-0.082
		C34.376,8.72,34.377,8.62,34.419,8.533z M34.45,9.396l2.987-0.738c0.124-0.031,0.224,0.057,0.227,0.196l0.194,13.963
		c0.001,0.139-0.097,0.277-0.221,0.31l-2.986,0.735c-0.123,0.031-0.223-0.057-0.227-0.194L34.229,9.702
		C34.227,9.563,34.326,9.427,34.45,9.396z"/>
	<path fill="#FFFFFF" d="M44.416,26.031l11.651,3.953V3.952L44.416-0.001V26.031z M46.111,15.508l2.424,1.146
		c0.101,0.047,0.178,0.203,0.175,0.344c-0.015,0.699,0.095,1.27,0.325,1.701c0.237,0.434,0.646,0.793,1.221,1.063
		c0.357,0.168,0.643,0.192,0.847,0.072c0.189-0.112,0.285-0.345,0.292-0.712c0.009-0.432-0.083-0.805-0.286-1.139
		c-0.228-0.373-0.647-0.861-1.247-1.438c-0.626-0.608-1.147-1.158-1.546-1.639c-1.338-1.607-2-3.294-1.963-5.008
		c0.02-0.859,0.211-1.544,0.573-2.039c0.355-0.49,0.854-0.771,1.483-0.836c0.618-0.065,1.316,0.083,2.074,0.441
		c0.744,0.351,1.417,0.866,2.001,1.53c0.592,0.675,1.053,1.465,1.372,2.347c0.32,0.888,0.472,1.812,0.453,2.742
		c-0.003,0.146-0.087,0.223-0.186,0.175l-2.41-1.136c-0.101-0.048-0.178-0.203-0.176-0.347c0.011-0.519-0.083-0.953-0.29-1.331
		c-0.209-0.381-0.508-0.665-0.887-0.845c-0.389-0.183-0.7-0.208-0.92-0.069c-0.21,0.129-0.316,0.356-0.323,0.7
		c-0.006,0.29,0.101,0.604,0.325,0.965c0.252,0.403,0.716,0.93,1.379,1.558c0.696,0.659,1.274,1.291,1.721,1.884
		c1.119,1.486,1.667,3.094,1.631,4.775c-0.029,1.35-0.41,2.257-1.132,2.696c-0.705,0.432-1.667,0.364-2.853-0.195
		c-0.834-0.395-1.597-0.977-2.266-1.729c-0.678-0.766-1.193-1.633-1.528-2.57c-0.333-0.938-0.492-1.926-0.47-2.931
		C45.93,15.54,46.012,15.46,46.111,15.508z"/>
	<path fill="#FFFFFF" d="M57.253,30l14.657-3.954V0.015L57.253,3.967V30z M59.32,9.826c0-0.13,0.107-0.269,0.237-0.304l9.105-2.549
		c0.132-0.036,0.238,0.04,0.238,0.171v2.456c0,0.132-0.106,0.268-0.238,0.306l-5.688,1.591v2.309l4.766-1.334
		c0.13-0.035,0.235,0.041,0.235,0.173v2.354c0,0.133-0.104,0.268-0.235,0.303l-4.766,1.334v2.682l5.671-1.588
		c0.129-0.035,0.235,0.039,0.235,0.17v2.449c0,0.133-0.106,0.268-0.235,0.303l-9.088,2.546c-0.13,0.037-0.237-0.043-0.237-0.172
		V9.826z"/>
	<path fill="#FFFFFF" d="M73.095,0.015v26.032l11.652,3.954V3.967L73.095,0.015z M82.823,14.259l-2.408-1.136
		c-0.102-0.048-0.178-0.203-0.176-0.347c0.011-0.519-0.083-0.953-0.29-1.331c-0.208-0.381-0.508-0.665-0.889-0.845
		c-0.388-0.183-0.697-0.208-0.92-0.069c-0.209,0.129-0.314,0.356-0.322,0.7c-0.005,0.29,0.101,0.604,0.324,0.965
		c0.252,0.403,0.716,0.93,1.381,1.558c0.695,0.659,1.274,1.291,1.72,1.884c1.116,1.486,1.665,3.094,1.63,4.775
		c-0.027,1.35-0.409,2.257-1.132,2.696c-0.705,0.432-1.664,0.364-2.853-0.195c-0.834-0.395-1.597-0.977-2.266-1.729
		c-0.678-0.766-1.194-1.633-1.527-2.57c-0.334-0.938-0.493-1.926-0.472-2.931c0.003-0.144,0.087-0.224,0.187-0.176l2.424,1.146
		c0.1,0.047,0.178,0.203,0.175,0.344c-0.015,0.699,0.095,1.27,0.325,1.701c0.235,0.434,0.646,0.793,1.222,1.063
		c0.357,0.168,0.644,0.192,0.846,0.072c0.19-0.112,0.284-0.345,0.294-0.712c0.008-0.432-0.085-0.805-0.288-1.139
		c-0.226-0.373-0.645-0.861-1.245-1.438c-0.626-0.608-1.148-1.158-1.546-1.639c-1.338-1.607-2-3.294-1.962-5.008
		c0.018-0.859,0.209-1.544,0.572-2.039c0.354-0.49,0.854-0.771,1.482-0.836c0.619-0.065,1.316,0.083,2.075,0.441
		c0.742,0.351,1.416,0.866,2,1.53c0.592,0.675,1.053,1.465,1.371,2.347c0.32,0.888,0.473,1.812,0.452,2.742
		C83.006,14.229,82.923,14.307,82.823,14.259z"/>
</g>
</svg>
